<svg data-v-5ea6dcaf="" width="180" height="97" viewBox="0 0 180 97" fill="none" xmlns="http://www.w3.org/2000/svg"><rect data-v-5ea6dcaf="" y="33" width="180" height="64" rx="8" fill="#FFFBEB"/><path data-v-5ea6dcaf="" opacity="0.1" d="M23.4137 89.3206L52.3461 67.9657C52.6167 67.766 52.9441 67.6582 53.2804 67.6582H150.363C151.92 67.6582 152.531 69.6773 151.236 70.5408L119.302 91.83C116.787 93.5067 113.816 94.3665 110.794 94.292L24.3092 92.1595C22.8111 92.1225 22.2079 90.2105 23.4137 89.3206Z" fill="#9CA3AF"/><path data-v-5ea6dcaf="" d="M71.971 5.24414C72.3235 6.51566 72.5266 8.48723 72.155 10.6502M65.8985 19.5544C69.9465 17.1676 71.6282 13.7166 72.155 10.6502M72.155 10.6502C70.3891 10.6502 66.2181 11.5407 63.6613 15.1023C61.1045 18.664 56.2039 18.9184 54.0732 18.6004C58.5477 25.2785 71.971 28.5858 74.5278 12.5583" stroke="#FFBC00" stroke-width="1.66667" stroke-linecap="round" stroke-linejoin="round"/><path data-v-5ea6dcaf="" d="M72.1685 29.1094L21.5566 59.0045C54.9133 86.0674 93.8468 89.8611 109.144 88.3751L153.462 45.8926C153.462 45.8926 109.406 46.9415 72.1685 29.1094Z" fill="white" stroke="#9CA3AF" stroke-width="1.66667" stroke-linejoin="round"/><path data-v-5ea6dcaf="" d="M81.5356 40.4985L74.1126 38.1128L39.9504 60.985C39.9504 60.985 44.8621 64.1509 46.8828 64.436L81.5356 40.4985Z" fill="#EFEFEF"/><path data-v-5ea6dcaf="" d="M96.5419 45.1509L89.0261 43.0763L55.8459 67.3512C55.8459 67.3512 60.8851 70.3098 62.9159 70.5105L96.5419 45.1509Z" fill="#EFEFEF"/><path data-v-5ea6dcaf="" d="M112.388 49.2816L104.784 47.5593L84.1253 64.5845C84.1253 64.5845 89.2969 67.3052 91.3348 67.4111L112.388 49.2816Z" fill="#EFEFEF"/><ellipse data-v-5ea6dcaf="" cx="81.8708" cy="71.854" rx="5.76923" ry="4.1958" fill="#EFEFEF"/><path data-v-5ea6dcaf="" d="M118.685 56C118.975 57.0485 119.141 58.6744 118.836 60.458M113.703 67.8007C117.024 65.8325 118.404 62.9866 118.836 60.458M118.836 60.458C117.387 60.458 113.965 61.1923 111.867 64.1294C109.769 67.0664 105.748 67.2762 104 67.014C107.671 72.521 118.685 75.2483 120.783 62.0315" stroke="#FFBC00" stroke-width="1.66667" stroke-linecap="round" stroke-linejoin="round"/><circle data-v-5ea6dcaf="" cx="92.3138" cy="40.6245" r="15.4167" transform="rotate(-7.15615 92.3138 40.6245)" fill="white" fill-opacity="0.5" stroke="#9CA3AF" stroke-width="1.66667"/><path data-v-5ea6dcaf="" d="M107.923 35.4231L106.666 32.3359L125.028 24.8588C125.881 24.5117 126.853 24.9214 127.2 25.7739C127.548 26.6264 127.138 27.5989 126.285 27.946L107.923 35.4231Z" fill="#9CA3AF" stroke="#9CA3AF" stroke-width="0.833333"/></svg>